<svg width="500" height="500" viewBox="0 0 500 500" fill="none" xmlns="http://www.w3.org/2000/svg">
<path d="M76.2804 331.776C77.4804 313.376 132.114 308.443 159.28 308.276L173.78 291.776C187.614 267.776 217.78 215.376 227.78 197.776C240.28 175.776 234.78 135.776 227.78 135.776H183.28L173.78 94.2761L197.28 119.776C209.114 112.943 236.28 98.2761 250.28 94.2761C267.78 89.2761 323.28 153.276 332.78 197.776C342.28 242.276 344.28 272.276 344.28 300.276C344.28 328.276 349.78 321.276 389.78 331.776C429.78 342.276 425.28 357.276 421.78 374.776C418.28 392.276 382.78 399.276 349.78 403.776C316.78 408.276 219.78 409.776 148.28 390.776C76.7804 371.776 74.7804 354.776 76.2804 331.776Z" fill="url(#paint0_radial_40_17)"/>
<defs>
<radialGradient id="paint0_radial_40_17" cx="0" cy="0" r="1" gradientUnits="userSpaceOnUse" gradientTransform="translate(258.78 165.776) rotate(92.0909) scale(241.038 241.038)">
<stop offset="0.0311191" stop-color="#6A0DAD"/>
<stop offset="0.720457" stop-color="#6A0DAD"/>
<stop offset="1" stop-color="#9D4EDD"/>
</radialGradient>
</defs>
</svg>
